<svg width="80" height="89" fill="none" xmlns="http://www.w3.org/2000/svg"><g clip-path="url(#a)" fill="#fff"><path d="M38.312 17.649c1.39 1.26 1.487 2.933 1.476 4.64-.027.55-.077 1.102-.077 1.637v29.619c0 2.878.036 5.756.055 8.634-.022 1.27-.052 2.544-.063 3.818-.017 1.77-.187 1.93-1.955 1.963-.362 0-.725.025-1.1.039-.912 0-1.827-.03-2.748-.033-3.104-.014-5.03-1.875-5.135-5.001-.03-.916 0-1.834 0-2.757-.02-1.905-.366-2.222-2.27-2.109-4.51-.37-7.508-3.62-7.404-8.14.02-.91-.275-1.38-.992-1.862a7.663 7.663 0 0 1-3.226-4.904 7.697 7.697 0 0 1 1.178-5.756c.602-.877.775-1.59.275-2.481-.446-.778-.498-1.632-.528-2.495.245-3.603 1.88-6.236 5.327-7.553a1.149 1.149 0 0 0 .853-1.056c.588-4.571 5.135-8.014 10.223-6.42.437.126.907.076 1.309-.139a4.78 4.78 0 0 1 4.802.356zM24.859 55.05a4.254 4.254 0 0 0 3.282.34c2.41-.638 3.637-2.306 4.104-4.632.184-.91.761-1.103 1.506-.954.745.149 1.048.692.921 1.428a9.616 9.616 0 0 1-1.341 3.548c-.67 1.059-2.35 1.555-2.458 2.55-.115 1.064.627 2.305.55 3.567-.275 5.086.915 4.59 4.825 4.582.044-.003.09-.003.134 0 .663.069.866-.254.863-.888-.027-8.235-.045-16.469-.052-24.7 0-2.98.03-5.958.036-8.935a4.892 4.892 0 0 0-1.342-3.331 4.865 4.865 0 0 0-3.252-1.51c-.888-.06-1.712.229-2.567.309-.525.05-1.163.124-1.314-.637-.151-.761-.072-1.378.736-1.71a6.914 6.914 0 0 1 1.994-.451c2.061-.171 3.928.4 5.753 1.681v-3.424c0-2.495-.789-3.06-3.12-2.122a3.475 3.475 0 0 1-2.763.041c-1.44-.568-2.88-.342-4.214.419-3.09 1.759-3.617 5.533-1.154 8.455.613.728.948 1.43.14 2.128-.808.698-1.468.177-2.02-.427-.62-.675-1.221-1.398-1.499-2.283-.277-.885-.695-.827-1.39-.466a5.351 5.351 0 0 0-2.431 2.698 5.37 5.37 0 0 0-.153 3.632 5.354 5.354 0 0 0 2.194 2.894 5.33 5.33 0 0 0 3.531.822c.732-.096 1.125-.386 1.199-1.194.072-.96.32-1.9.731-2.77.396-.808.924-1.28 1.84-.85.857.403.805 1.087.519 1.856-1.12 3.032-.517 5.155 2.02 6.942.718.504 1.067 1.075.616 1.827-.5.827-1.29.753-2.04.312a7.016 7.016 0 0 1-2.749-2.986c-.327-.653-.574-.901-1.418-.736a7.388 7.388 0 0 1-5.163-.854c-1.608-.91-2.061-.692-2.438 1.193a4.836 4.836 0 0 0-.165 1.756c.594 3.67 3.524 5.586 7.098 4.538.824-.242 1.5-.218 1.806.634.349.968-.151 1.574-1.1 1.847a7.188 7.188 0 0 1-2.7.35c-.687-.069-.846.24-.851.874-.006 1.902 1.283 3.755 3.296 4.637zM20.474 4.268a1.463 1.463 0 0 1 1.212.763c1.413 2.235 2.831 4.466 4.255 6.694.465.727.473 1.444-.275 1.907-.747.463-1.404.171-1.863-.551-1.44-2.269-2.906-4.527-4.3-6.826-.583-.962-.03-1.98.97-1.987zM13.32 25.294a1.818 1.818 0 0 1-.491-.166 983.95 983.95 0 0 1-7.026-3.716c-.712-.383-.963-1.028-.602-1.745.36-.717 1.025-.827 1.75-.455 2.39 1.252 4.784 2.481 7.162 3.755.602.322 1.025.827.78 1.58-.192.584-.643.873-1.572.747zM41.141 5.414V9.53c0 .827-.34 1.298-1.218 1.285-.825-.014-1.138-.469-1.138-1.227V1.224c0-.7.206-1.28 1.1-1.219.824.055 1.25.452 1.248 1.296l.008 4.113z"/><path d="M29.563 83.05c-.635-1.006-.465-2.357-1.545-3.225-.443-.359-.14-1.103.387-1.55.792-.658.88-1.298 0-2.004-.75-.6-.725-1.31-.063-2.004 1.004-1.056.91-1.439-.489-2.012a3.925 3.925 0 0 1-1.79-1.438 3.942 3.942 0 0 1-.684-2.196c0-.736.223-1.31.97-1.43.803-.13 1.397.333 1.449 1.102.099 1.448.946 1.668 2.147 1.632 2.053-.06 4.123-.035 6.166-.047 5.432 0 10.866.011 16.301.034.924 0 1.397-.373 1.584-1.318.307-1.55 1.1-1.806 2.408-.874.233 2.282-.597 3.876-2.86 4.648-1.05.358-.956 1.185-.316 1.806.809.78.844 1.34.017 2.128-.621.587-.646 1.312.074 1.98.66.606.825 1.292.03 1.965-.244.204-.497.419-.489.78.041 1.775-1.1 2.701-2.474 3.443-1.182.017-2.367.066-3.549.033-.78-.025-1.124.168-1.146 1.053-.052 2.065-1.116 3.033-3.192 3.052-1.1 0-2.185.016-3.276 0-1.834-.036-2.98-1.07-3.101-2.925-.05-.766-.289-1.078-1.05-1.015-.451.04-.91 0-1.375 0-1.613.1-3.032-.358-4.134-1.618zm11.482-10.663c-2.65 0-5.3-.036-7.95.028-.583.013-1.594-.552-1.663.741-.069 1.293.948.733 1.548.871.091.007.183.007.275 0 .753.047 1.193.433 1.204 1.205.01.772-.404 1.191-1.163 1.243-.41.03-.825.022-1.232.017-.59 0-.635.375-.637.827-.003.452.096.827.668.805h1.1c.76 0 1.206.358 1.272 1.13.069.827-.45 1.147-1.133 1.296-.275.058-.55 0-.824.038-.363.056-.924-.228-1.006.38-.072.516.332.85.775 1.015.382.142.785.219 1.193.227h14.94a2.318 2.318 0 0 0 1.54-.458.827.827 0 0 0 .404-.827c-.09-.436-.481-.331-.78-.345-.46.01-.918-.004-1.375-.041-.696-.113-1.199-.477-1.147-1.282.053-.805.506-1.139 1.26-1.15.456 0 .915-.022 1.374 0 .651.025.726-.369.728-.89.003-.521-.214-.75-.734-.736-.502.02-1.005.015-1.506-.017a1.099 1.099 0 0 1-1.1-1.157c-.027-.759.355-1.21 1.12-1.288.36-.033.728 0 1.099-.014.522-.019 1.119.152 1.146-.744.028-.896-.533-.888-1.16-.888-2.754.02-5.495.014-8.236.014zm-.055 12.13h-1.65c-.467 0-.794.13-.788.686 0 .51.12.924.728.93h3.272c.615 0 .72-.417.717-.93 0-.551-.322-.689-.792-.683-.47.005-.981.002-1.487.002v-.005zM5.498 37.398h3.967c.866 0 1.424.386 1.4 1.302-.026.851-.597 1.19-1.375 1.193H1.416c-.85 0-1.443-.424-1.413-1.312.03-.805.577-1.185 1.391-1.18 1.375.014 2.749 0 4.107 0l-.003-.003z"/><path d="M42.045 21.462c.022-1.103.047-2.206.06-3.309.025-1.742.39-2.125 2.158-1.896a24.419 24.419 0 0 1 8.302 2.633 23.234 23.234 0 0 1 10.372 11.964c1.627 5.213 1.776 10.429-.066 15.623-1.553 4.383-4.123 8.069-7.912 10.767-1.44 1.023-2.056 2.159-1.924 3.896.09 1.078.16 2.189-.16 3.275-.662 2.252-2.297 3.534-4.62 3.55-1.463 0-2.928-.052-4.399 0-1.333.061-1.784-.55-1.756-1.813.038-1.693-.03-3.389-.052-5.081.019-.276.055-.551.055-.827V22.399c.03-.3-.02-.618-.058-.938zm2.609 34.112c0 2.205-.036 4.397-.042 6.597 0 3.465 0 3.465 3.494 3.308h.275c1.22-.121 1.999-.91 2.04-2.145.038-1.103-.02-2.205.022-3.308.06-1.682.635-3.137 2.075-4.121a19.244 19.244 0 0 0 4.371-3.915c4.124-5.205 5.754-11.027 4.272-17.588-1.218-5.988-4.563-10.368-9.943-13.208a20.309 20.309 0 0 0-5.429-2.114c-.786-.185-1.177-.072-1.155.882.06 2.793.042 5.585.055 8.375l-.024 27.237h-.011zM68.749 24.676c-.415.184-.839.353-1.245.551-.743.378-1.375.37-1.812-.452-.47-.868 0-1.433.67-1.808a96.43 96.43 0 0 1 4.949-2.614c1.047-.513 1.954-1.378 3.213-1.406 1.408 1.216 1.375 1.834-.242 2.724-1.83 1.028-3.686 2.015-5.533 3.005zM56.95 12.935c-.216.23-.448.447-.692.648a1.21 1.21 0 0 1-1.628-.055 1.104 1.104 0 0 1-.236-1.489c1.492-2.404 2.985-4.808 4.525-7.168.42-.645 1.1-.851 1.79-.36.69.49.706 1.102.274 1.805a1683.857 1683.857 0 0 0-4.046 6.633l.013-.014zM40.597 76.478c-.728 0-1.46.02-2.2 0a1.099 1.099 0 0 1-1.099-1.158c-.027-.705.341-1.26 1.127-1.276 1.501-.03 3.004-.03 4.509 0 .761.014 1.174.471 1.174 1.23 0 .758-.435 1.185-1.19 1.215-.757.03-1.548 0-2.324 0l.003-.01zM40.61 80.583c-.638 0-1.276.028-1.91 0-.825-.044-1.422-.48-1.41-1.343.01-.862.626-1.122 1.412-1.102 1.41.016 2.82 0 4.23 0 .611 0 1.062.184 1.139.896.077.71-.121 1.32-.885 1.441-.847.136-1.716.122-2.573.174l-.003-.066z"/><path d="M57.533 37.148c-.138.777-.668 1.102-1.375 1.226-.632-.132-1.05-.419-1.151-1.15-.55-4.06-2.376-7.34-5.902-9.576-.624-.397-.79-1.015-.325-1.654.52-.717 1.144-.789 1.9-.298 4.145 2.693 6.325 6.57 6.853 11.451zM55.046 41.511c1.578.097 2.05.634 1.547 2.013a13.138 13.138 0 0 1-2.273 4.135c-.935 1.089-1.523 1.053-2.474-.091a1.383 1.383 0 0 1 .275-1.172 15.776 15.776 0 0 0 2.215-4.08c.13-.306.47-.535.71-.805z"/></g><defs><clipPath id="a"><path fill="#fff" d="M0 0h80v88.627H0z"/></clipPath></defs></svg>