<svg width="80" height="89" fill="none" xmlns="http://www.w3.org/2000/svg"><g clip-path="url(#a)" fill="#fff"><path d="M38.312 17.65c1.39 1.26 1.487 2.933 1.476 4.64-.027.55-.077 1.102-.077 1.637v29.62c0 2.878.036 5.756.055 8.634-.022 1.27-.052 2.544-.063 3.818-.017 1.77-.187 1.93-1.955 1.963-.362 0-.725.025-1.1.038-.912 0-1.827-.03-2.748-.032-3.104-.014-5.03-1.875-5.135-5.002-.03-.915 0-1.833 0-2.756-.02-1.905-.366-2.222-2.27-2.11-4.51-.369-7.508-3.62-7.404-8.14.02-.91-.275-1.379-.992-1.861a7.661 7.661 0 0 1-3.226-4.905 7.698 7.698 0 0 1 1.178-5.756c.602-.877.775-1.59.275-2.481-.446-.778-.498-1.632-.528-2.495.245-3.603 1.88-6.236 5.327-7.554a1.149 1.149 0 0 0 .853-1.056c.588-4.57 5.135-8.014 10.223-6.42.437.126.907.077 1.309-.138a4.78 4.78 0 0 1 4.802.355zM24.859 55.051a4.254 4.254 0 0 0 3.282.339c2.41-.637 3.637-2.305 4.104-4.632.184-.91.761-1.102 1.506-.954.745.15 1.048.692.921 1.428a9.616 9.616 0 0 1-1.341 3.548c-.67 1.06-2.35 1.555-2.458 2.55-.115 1.065.627 2.305.55 3.568-.275 5.086.915 4.59 4.825 4.582.044-.003.09-.003.134 0 .663.069.866-.254.863-.888-.027-8.236-.045-16.47-.052-24.701 0-2.98.03-5.958.036-8.935a4.892 4.892 0 0 0-1.342-3.332 4.865 4.865 0 0 0-3.252-1.51c-.888-.06-1.712.23-2.567.31-.525.05-1.163.123-1.314-.637-.151-.761-.072-1.379.736-1.71a6.914 6.914 0 0 1 1.994-.452c2.061-.17 3.928.4 5.753 1.682v-3.424c0-2.495-.789-3.06-3.12-2.123a3.475 3.475 0 0 1-2.763.041c-1.44-.567-2.88-.341-4.214.42-3.09 1.758-3.617 5.533-1.154 8.455.613.728.948 1.43.14 2.128-.808.698-1.468.177-2.02-.427-.62-.676-1.221-1.398-1.499-2.283-.277-.885-.695-.827-1.39-.466a5.351 5.351 0 0 0-2.431 2.698 5.37 5.37 0 0 0-.153 3.632 5.355 5.355 0 0 0 2.194 2.894 5.33 5.33 0 0 0 3.531.822c.732-.096 1.125-.386 1.199-1.194.072-.96.32-1.9.731-2.77.396-.808.924-1.28 1.84-.85.857.403.805 1.087.519 1.856-1.12 3.033-.517 5.155 2.02 6.942.718.504 1.067 1.075.616 1.828-.5.827-1.29.752-2.04.311a7.017 7.017 0 0 1-2.749-2.986c-.327-.653-.574-.901-1.418-.736a7.388 7.388 0 0 1-5.163-.854c-1.608-.91-2.061-.692-2.438 1.194a4.836 4.836 0 0 0-.165 1.756c.594 3.669 3.524 5.585 7.098 4.537.824-.242 1.5-.217 1.806.634.349.968-.151 1.575-1.1 1.848a7.19 7.19 0 0 1-2.7.35c-.687-.07-.846.24-.851.874-.006 1.902 1.283 3.754 3.296 4.637zM20.474 4.268a1.463 1.463 0 0 1 1.212.763c1.413 2.235 2.831 4.466 4.255 6.693.465.728.473 1.445-.275 1.908-.747.463-1.404.17-1.863-.551-1.44-2.27-2.906-4.527-4.3-6.826-.583-.962-.03-1.98.97-1.987zM13.32 25.294a1.818 1.818 0 0 1-.491-.166 983.939 983.939 0 0 1-7.026-3.716c-.712-.383-.963-1.028-.602-1.745.36-.716 1.025-.827 1.75-.454 2.39 1.251 4.784 2.48 7.162 3.754.602.323 1.025.827.78 1.58-.192.584-.643.874-1.572.747z"/><path d="M29.563 83.053c-.635-1.007-.465-2.357-1.545-3.226-.443-.358-.14-1.103.387-1.55.792-.658.88-1.298 0-2.003-.75-.601-.725-1.31-.063-2.005 1.004-1.056.91-1.439-.489-2.012a3.925 3.925 0 0 1-1.79-1.438 3.942 3.942 0 0 1-.684-2.196c0-.736.223-1.31.97-1.43.803-.13 1.397.333 1.449 1.102.099 1.448.946 1.668 2.147 1.632 2.053-.06 4.123-.036 6.166-.047 5.432 0 10.866.011 16.301.034.924 0 1.397-.373 1.584-1.318.307-1.55 1.1-1.806 2.408-.874.233 2.282-.597 3.876-2.86 4.648-1.05.358-.956 1.185-.316 1.806.809.78.844 1.34.017 2.128-.621.587-.646 1.312.074 1.98.66.606.825 1.292.03 1.965-.244.204-.497.419-.489.78.041 1.776-1.1 2.702-2.474 3.444-1.182.016-2.367.066-3.549.032-.78-.024-1.124.169-1.146 1.054-.052 2.065-1.116 3.032-3.192 3.052-1.1 0-2.185.016-3.276 0-1.834-.036-2.98-1.07-3.101-2.925-.05-.767-.289-1.078-1.05-1.015-.451.039-.91 0-1.375 0-1.613.1-3.032-.358-4.134-1.618zm11.482-10.664c-2.65 0-5.3-.036-7.95.028-.583.014-1.594-.552-1.663.741-.069 1.293.948.734 1.548.871.091.007.183.007.275 0 .753.047 1.193.433 1.204 1.205.01.772-.404 1.191-1.163 1.244-.41.03-.825.022-1.232.016-.59 0-.635.375-.637.827-.003.452.096.827.668.805h1.1c.76 0 1.206.359 1.272 1.13.069.828-.45 1.147-1.133 1.296-.275.058-.55 0-.824.039-.363.055-.924-.229-1.006.38-.072.516.332.85.775 1.015.382.142.785.218 1.193.226h14.94a2.318 2.318 0 0 0 1.54-.458.826.826 0 0 0 .404-.827c-.09-.435-.481-.33-.78-.344a13.3 13.3 0 0 1-1.375-.042c-.696-.113-1.199-.477-1.147-1.282.053-.805.506-1.138 1.26-1.15.456 0 .915-.021 1.374 0 .651.026.726-.369.728-.89.003-.52-.214-.75-.734-.736-.502.02-1.005.015-1.506-.016a1.097 1.097 0 0 1-1.032-.72 1.105 1.105 0 0 1-.068-.438c-.027-.758.355-1.21 1.12-1.288.36-.033.728 0 1.099-.014.522-.019 1.119.152 1.146-.744.028-.896-.533-.888-1.16-.888-2.754.02-5.495.014-8.236.014zm-.055 12.13h-1.65c-.467 0-.794.13-.788.687 0 .51.12.923.728.929h3.272c.615 0 .72-.416.717-.93 0-.55-.322-.688-.792-.683-.47.006-.981.003-1.487.003v-.006zM5.498 37.4h3.967c.866 0 1.424.385 1.4 1.3-.026.852-.597 1.191-1.375 1.194H1.416c-.85 0-1.443-.424-1.413-1.312.03-.805.577-1.185 1.391-1.18 1.375.014 2.749 0 4.107 0l-.003-.003z"/><path d="M42.045 21.462c.022-1.103.047-2.205.06-3.308.025-1.742.39-2.126 2.158-1.897a24.419 24.419 0 0 1 8.302 2.633 23.234 23.234 0 0 1 10.372 11.965c1.627 5.213 1.776 10.429-.066 15.623-1.553 4.383-4.123 8.07-7.912 10.768-1.44 1.023-2.056 2.159-1.924 3.895.09 1.078.16 2.19-.16 3.276-.662 2.252-2.297 3.534-4.62 3.55-1.463 0-2.928-.052-4.399 0-1.333.061-1.784-.55-1.756-1.814.038-1.692-.03-3.388-.052-5.08.019-.276.055-.552.055-.828V22.4c.03-.3-.02-.617-.058-.937zm2.609 34.113c0 2.206-.036 4.398-.042 6.598 0 3.465 0 3.465 3.494 3.308h.275c1.22-.121 1.999-.91 2.04-2.145.038-1.103-.02-2.206.022-3.308.06-1.682.635-3.137 2.075-4.122a19.245 19.245 0 0 0 4.371-3.914c4.124-5.205 5.754-11.028 4.272-17.59-1.218-5.987-4.563-10.368-9.943-13.207a20.31 20.31 0 0 0-5.429-2.115c-.786-.184-1.177-.071-1.155.882.06 2.793.042 5.586.055 8.376l-.024 27.237h-.011zM40.597 76.48c-.728 0-1.46.02-2.2 0a1.095 1.095 0 0 1-1.031-.718 1.105 1.105 0 0 1-.068-.44c-.027-.705.341-1.259 1.127-1.276 1.501-.029 3.004-.029 4.509 0 .761.014 1.174.472 1.174 1.23s-.435 1.185-1.19 1.216c-.757.03-1.548 0-2.324 0l.003-.011zM40.61 80.585c-.638 0-1.276.028-1.91 0-.825-.044-1.422-.48-1.41-1.342.01-.863.626-1.122 1.412-1.103 1.41.017 2.82 0 4.23 0 .611 0 1.062.185 1.139.896.077.711-.121 1.32-.885 1.442-.847.135-1.716.121-2.573.174l-.003-.067z"/><path d="M57.533 37.148c-.138.777-.668 1.102-1.375 1.226-.632-.132-1.05-.419-1.151-1.15-.55-4.06-2.376-7.34-5.902-9.576-.624-.397-.79-1.014-.325-1.654.52-.717 1.144-.788 1.9-.298 4.145 2.694 6.325 6.57 6.853 11.452zM55.046 41.513c1.578.096 2.05.634 1.547 2.012a13.135 13.135 0 0 1-2.273 4.135c-.935 1.089-1.523 1.053-2.474-.09a1.383 1.383 0 0 1 .275-1.172 15.774 15.774 0 0 0 2.215-4.08c.13-.306.47-.535.71-.805z"/></g><defs><clipPath id="a"><path fill="#fff" d="M0 0h80v88.63H0z"/></clipPath></defs></svg>