<svg width="11" height="11" viewBox="0 0 11 11" fill="none" xmlns="http://www.w3.org/2000/svg">
<path fill-rule="evenodd" clip-rule="evenodd" d="M3.2325 0.033C3.819 0.00599999 4.006 0 5.5 0C6.994 0 7.181 0.00649999 7.767 0.033C8.353 0.0595 8.753 0.153 9.103 0.2885C9.4695 0.427 9.802 0.6435 10.077 0.9235C10.357 1.198 10.573 1.53 10.711 1.897C10.847 2.247 10.94 2.647 10.967 3.232C10.994 3.8195 11 4.0065 11 5.5C11 6.994 10.9935 7.181 10.967 7.7675C10.9405 8.3525 10.847 8.7525 10.711 9.1025C10.573 9.46955 10.3566 9.8021 10.077 10.077C9.802 10.357 9.4695 10.573 9.103 10.711C8.753 10.847 8.353 10.94 7.768 10.967C7.181 10.994 6.994 11 5.5 11C4.006 11 3.819 10.9935 3.2325 10.967C2.6475 10.9405 2.2475 10.847 1.8975 10.711C1.53046 10.573 1.19791 10.3566 0.923 10.077C0.64319 9.80233 0.426657 9.46994 0.2885 9.103C0.153 8.753 0.06 8.353 0.033 7.768C0.00599999 7.1805 0 6.9935 0 5.5C0 4.006 0.00649999 3.819 0.033 3.233C0.0595 2.647 0.153 2.247 0.2885 1.897C0.426861 1.53004 0.643559 1.19766 0.9235 0.923C1.19802 0.643251 1.53024 0.426722 1.897 0.2885C2.247 0.153 2.647 0.06 3.232 0.033H3.2325ZM7.7225 1.023C7.1425 0.9965 6.9685 0.991 5.5 0.991C4.0315 0.991 3.8575 0.9965 3.2775 1.023C2.741 1.0475 2.45 1.137 2.256 1.2125C1.9995 1.3125 1.816 1.431 1.6235 1.6235C1.44102 1.80103 1.30059 2.01714 1.2125 2.256C1.137 2.45 1.0475 2.741 1.023 3.2775C0.9965 3.8575 0.991 4.0315 0.991 5.5C0.991 6.9685 0.9965 7.1425 1.023 7.7225C1.0475 8.259 1.137 8.55 1.2125 8.744C1.3005 8.9825 1.441 9.199 1.6235 9.3765C1.801 9.559 2.0175 9.6995 2.256 9.7875C2.45 9.863 2.741 9.9525 3.2775 9.977C3.8575 10.0035 4.031 10.009 5.5 10.009C6.969 10.009 7.1425 10.0035 7.7225 9.977C8.259 9.9525 8.55 9.863 8.744 9.7875C9.0005 9.6875 9.184 9.569 9.3765 9.3765C9.559 9.199 9.6995 8.9825 9.7875 8.744C9.863 8.55 9.9525 8.259 9.977 7.7225C10.0035 7.1425 10.009 6.9685 10.009 5.5C10.009 4.0315 10.0035 3.8575 9.977 3.2775C9.9525 2.741 9.863 2.45 9.7875 2.256C9.6875 1.9995 9.569 1.816 9.3765 1.6235C9.19896 1.44104 8.98285 1.30061 8.744 1.2125C8.55 1.137 8.259 1.0475 7.7225 1.023ZM4.7975 7.1955C5.18983 7.35882 5.62669 7.38086 6.03346 7.25786C6.44024 7.13486 6.7917 6.87446 7.0278 6.52112C7.26391 6.16778 7.37003 5.74344 7.32802 5.32055C7.28602 4.89767 7.0985 4.50249 6.7975 4.2025C6.60562 4.01074 6.37361 3.86391 6.11817 3.77257C5.86273 3.68124 5.59021 3.64768 5.32025 3.67431C5.05028 3.70094 4.78958 3.78709 4.5569 3.92657C4.32423 4.06604 4.12537 4.25537 3.97465 4.48093C3.82393 4.70648 3.72509 4.96264 3.68526 5.23098C3.64542 5.49932 3.66558 5.77315 3.74427 6.03276C3.82296 6.29237 3.95824 6.5313 4.14036 6.73236C4.32248 6.93342 4.54691 7.09159 4.7975 7.1955ZM3.501 3.501C3.76351 3.23849 4.07516 3.03025 4.41815 2.88818C4.76114 2.74611 5.12875 2.67299 5.5 2.67299C5.87125 2.67299 6.23886 2.74611 6.58185 2.88818C6.92484 3.03025 7.23649 3.23849 7.499 3.501C7.76151 3.76351 7.96975 4.07516 8.11182 4.41815C8.25389 4.76114 8.32701 5.12875 8.32701 5.5C8.32701 5.87125 8.25389 6.23886 8.11182 6.58185C7.96975 6.92484 7.76151 7.23649 7.499 7.499C6.96883 8.02917 6.24977 8.32701 5.5 8.32701C4.75023 8.32701 4.03117 8.02917 3.501 7.499C2.97083 6.96883 2.67299 6.24977 2.67299 5.5C2.67299 4.75023 2.97083 4.03117 3.501 3.501ZM8.954 3.094C9.01905 3.03263 9.07113 2.95884 9.10715 2.87699C9.14317 2.79513 9.16241 2.70688 9.16371 2.61747C9.16501 2.52805 9.14836 2.43927 9.11474 2.35641C9.08112 2.27354 9.03122 2.19826 8.96798 2.13502C8.90474 2.07178 8.82946 2.02188 8.7466 1.98826C8.66373 1.95464 8.57495 1.93799 8.48553 1.93929C8.39612 1.9406 8.30787 1.95983 8.22601 1.99585C8.14416 2.03187 8.07036 2.08395 8.009 2.149C7.88966 2.27551 7.82432 2.44356 7.82685 2.61747C7.82939 2.79137 7.8996 2.95744 8.02258 3.08042C8.14556 3.2034 8.31163 3.27361 8.48553 3.27615C8.65944 3.27868 8.82749 3.21334 8.954 3.094Z" fill="white"/>
</svg>
