<svg width="22" height="40" viewBox="0 0 22 40" fill="none" xmlns="http://www.w3.org/2000/svg">
<path d="M19.9844 2.00108C19.9844 1.97935 19.9781 1.95825 19.9666 1.94019L19.9505 1.92361C19.9472 1.9202 19.9432 1.9175 19.9388 1.91565C19.9344 1.91379 19.9297 1.91284 19.9249 1.91284C19.9202 1.91284 19.9155 1.9138 19.9111 1.91565C19.9067 1.9175 19.9027 1.9202 19.8994 1.92361L19.8989 1.92414L2.40966 19.869L2.40959 19.8691C2.37546 19.9041 2.35636 19.9511 2.35636 20C2.35636 20.0489 2.37546 20.0958 2.40959 20.1308L2.40966 20.1309L19.8989 38.0758L19.8994 38.0763C19.9027 38.0797 19.9067 38.0824 19.9111 38.0843C19.9155 38.0861 19.9202 38.0871 19.9249 38.0871C19.9297 38.0871 19.9344 38.0861 19.9388 38.0843C19.9432 38.0824 19.9472 38.0797 19.9505 38.0763L19.9521 38.0746C19.9728 38.0534 19.9844 38.025 19.9844 37.9955C19.9844 37.9659 19.9728 37.9375 19.9521 37.9163L19.9512 37.9154L3.50482 21.0471L2.48396 20.0001L3.50471 18.9529L19.9511 2.0813L19.9521 2.08022C19.9728 2.05906 19.9844 2.03065 19.9844 2.00108Z" stroke="#F4698F" stroke-width="3"/>
</svg>
