<svg width="22" height="24" fill="none" xmlns="http://www.w3.org/2000/svg"><path d="M15.01 18.183a.33.33 0 0 0-.329.328c0 .237-.16.43-.357.43h-6.44c-.197 0-.357-.193-.357-.43a.329.329 0 0 0-.658 0c0 .586.437 1.063.98 1.083v.447a.328.328 0 0 0 0 .652v.446a.328.328 0 0 0 0 .652v.084a1.015 1.015 0 0 0 1.015 1.014h.922v.268a.828.828 0 0 0 .828.825h.978a.83.83 0 0 0 .827-.825v-.27h.922a1.017 1.017 0 0 0 1.015-1.014v-.09a.329.329 0 0 0 0-.64v-.458a.329.329 0 0 0 0-.64v-.451c.543-.02.98-.497.98-1.083a.328.328 0 0 0-.325-.328zm-3.25 4.974a.168.168 0 0 1-.168.168h-.978a.17.17 0 0 1-.17-.168v-.27h1.317v.27zm1.581-.927H8.864a.358.358 0 0 1-.357-.357v-.082h.51a.33.33 0 1 0 0-.657h-.51v-.438h.51a.33.33 0 0 0 0-.658h-.51v-.439h5.19v.439h-.62a.33.33 0 1 0 0 .658h.62v.438h-.62a.33.33 0 1 0 0 .657h.62v.082a.356.356 0 0 1-.356.355v.002z" fill="#F4698F" fill-opacity=".97"/><path d="M11.652 20.036h-1.207a.33.33 0 0 0 0 .658h1.207a.33.33 0 0 0 0-.658zM11.653 21.133h-1.207a.33.33 0 0 0 0 .657h1.207a.33.33 0 1 0 0-.657zM11.792 4.398a.329.329 0 0 0-.361.328v13.337a.329.329 0 0 0 .329.329h1.352a1.262 1.262 0 0 0 1.26-1.259v-.952a.607.607 0 0 1 .272-.498 6.305 6.305 0 0 0 2.77-5.216c0-3.196-2.365-5.748-5.622-6.069zm2.482 10.74a1.266 1.266 0 0 0-.56 1.043v.952a.601.601 0 0 1-.602.6h-1.023V5.1c2.725.432 4.666 2.636 4.666 5.367a5.64 5.64 0 0 1-2.48 4.673z" fill="#F4698F" fill-opacity=".97"/><path d="M15.175 11.247a.33.33 0 0 0-.415.21 3.52 3.52 0 0 1-.602 1.106.328.328 0 0 0 .29.543.331.331 0 0 0 .223-.13 4.17 4.17 0 0 0 .712-1.312.329.329 0 0 0-.207-.417zM13.686 6.93a.33.33 0 1 0-.346.56 3.32 3.32 0 0 1 1.585 2.58.33.33 0 0 0 .328.303h.027a.328.328 0 0 0 .298-.354 3.972 3.972 0 0 0-1.892-3.09zM7.517 15.693l.047-.008a.603.603 0 0 1 .269.495v.953a1.26 1.26 0 0 0 1.26 1.26h1.35a.33.33 0 0 0 .33-.33v-12.4a1.084 1.084 0 0 0-.435-.872 1.103 1.103 0 0 0-.969-.181 6.45 6.45 0 0 0-.508.169 2.102 2.102 0 0 0-2.276.448 2.119 2.119 0 0 0-.637 1.466 2.123 2.123 0 0 0-1.637 2.194c.02.33.118.653.286.94a2.113 2.113 0 0 0 .608 3.366 2.116 2.116 0 0 0 2.312 2.5zm-1.684-1.949a1.45 1.45 0 0 1 .007-.36 2.02 2.02 0 0 0 1.087-.134.33.33 0 0 0-.247-.61 1.464 1.464 0 0 1-2.016-1.417 1.46 1.46 0 0 1 .355-.89l.11.094a2.102 2.102 0 0 0 1.935.342c.175.48.52.882.968 1.128a.329.329 0 0 0 .316-.577 1.464 1.464 0 0 1-.584-1.983.329.329 0 0 0-.578-.315c-.183.336-.27.716-.254 1.098A1.464 1.464 0 0 1 4.97 8.936a1.461 1.461 0 0 1 1.06-1.59c.115.38.335.722.634.984a.33.33 0 0 0 .435-.493 1.46 1.46 0 0 1 .968-2.56c.229 0 .455.053.658.156a.33.33 0 0 0 .359-.04c.149-.057.307-.11.463-.154a.448.448 0 0 1 .569.423V6.91a2.145 2.145 0 0 0-1.299-.512A2.105 2.105 0 0 0 8 6.53a.33.33 0 1 0 .228.616 1.464 1.464 0 0 1 1.878.865.126.126 0 0 0 .01.017v9.706H9.092a.602.602 0 0 1-.6-.6v-.954c0-.254-.078-.503-.224-.712a2.104 2.104 0 0 0 1.13-1.638.328.328 0 1 0-.653-.074 1.461 1.461 0 0 1-1.457 1.284 1.465 1.465 0 0 1-1.45-1.292l-.005-.004zM2.603 10.13H.313a.33.33 0 0 0 0 .657h2.29a.33.33 0 0 0 0-.657zM7.053 3.244l-1.228-1.93a.33.33 0 0 0-.556.353l1.229 1.93a.33.33 0 1 0 .555-.353zM3.857 6.251 1.831 5.19a.33.33 0 1 0-.306.582l2.027 1.062a.33.33 0 0 0 .305-.582zM14.774 3.244l1.228-1.93a.33.33 0 0 1 .556.353l-1.229 1.93a.328.328 0 0 1-.558.022.33.33 0 0 1 .003-.375zM17.97 6.251l2.026-1.062a.33.33 0 1 1 .307.582l-2.027 1.062a.33.33 0 0 1-.306-.582zM21.36 10.13h-2.288a.33.33 0 0 0 0 .657h2.289a.33.33 0 0 0 0-.657zM11.168 2.612V.329a.33.33 0 0 0-.66 0v2.283a.329.329 0 0 0 .66 0z" fill="#F4698F" fill-opacity=".97"/></svg>