<svg width="64" height="71" fill="none" xmlns="http://www.w3.org/2000/svg"><g clip-path="url(#a)" fill="#fff"><path d="M44.303 53.832a.97.97 0 0 0-.971.972c0 .701-.473 1.272-1.053 1.272H23.29c-.58 0-1.052-.571-1.052-1.272a.975.975 0 0 0-.97-.928.97.97 0 0 0-.97.928c0 1.737 1.288 3.147 2.89 3.207v1.322a.966.966 0 0 0-.875.965.972.972 0 0 0 .874.965v1.323a.964.964 0 0 0-.885.964.969.969 0 0 0 .885.964v.251a3.01 3.01 0 0 0 .878 2.121c.561.563 1.322.88 2.115.881h2.718v.791c.002.649.26 1.27.717 1.728a2.44 2.44 0 0 0 1.724.716h2.885a2.44 2.44 0 0 0 1.723-.717 2.454 2.454 0 0 0 .716-1.727v-.798h2.718a2.992 2.992 0 0 0 2.115-.88 3.01 3.01 0 0 0 .878-2.121v-.267a.968.968 0 0 0 .759-.949.974.974 0 0 0-.76-.948v-1.353a.968.968 0 0 0 .76-.95.974.974 0 0 0-.76-.948v-1.333c1.6-.06 2.888-1.47 2.888-3.207a.974.974 0 0 0-.958-.972zm-9.582 14.726a.501.501 0 0 1-.499.5h-2.883a.498.498 0 0 1-.499-.5v-.798h3.883l-.002.798zm4.66-2.744H26.18a1.053 1.053 0 0 1-1.052-1.055v-.243h1.505a.97.97 0 0 0 1.017-.973.978.978 0 0 0-.632-.912.969.969 0 0 0-.385-.06h-1.505v-1.299h1.505a.97.97 0 0 0 .97-.974.975.975 0 0 0-.97-.974h-1.505v-1.298H40.43v1.298h-1.828a.97.97 0 0 0-.97.974.976.976 0 0 0 .97.974h1.828v1.298h-1.828a.97.97 0 0 0-1.017.973.975.975 0 0 0 1.017.973h1.828v.243a1.057 1.057 0 0 1-1.05 1.051v.004z"/><path d="M34.397 59.32h-3.56a.97.97 0 0 0-.97.974.975.975 0 0 0 .97.974h3.56a.97.97 0 0 0 .971-.974.975.975 0 0 0-.971-.974zM34.398 62.566h-3.56a.97.97 0 0 0-.925.973.976.976 0 0 0 .925.973h3.56a.97.97 0 0 0 1.017-.973.975.975 0 0 0-1.017-.973zM34.816 13.022a.97.97 0 0 0-1.066.97v39.485a.975.975 0 0 0 .971.975h3.986a3.715 3.715 0 0 0 2.625-1.094 3.736 3.736 0 0 0 1.088-2.633v-2.819a1.803 1.803 0 0 1 .805-1.474 18.638 18.638 0 0 0 5.997-6.704 18.7 18.7 0 0 0 2.168-8.74c0-9.461-6.97-17.018-16.574-17.966zm7.319 31.799a3.744 3.744 0 0 0-1.655 3.085v2.819c0 .471-.187.923-.52 1.257-.332.333-.783.52-1.253.521h-3.015V15.096c8.034 1.278 13.758 7.806 13.758 15.892 0 2.73-.668 5.417-1.943 7.829a16.698 16.698 0 0 1-5.372 6.004z"/><path d="M44.788 33.297a.968.968 0 0 0-1.224.622c-.39 1.19-.992 2.3-1.775 3.277a.975.975 0 0 0 .855 1.606.969.969 0 0 0 .657-.385 12.35 12.35 0 0 0 2.1-3.883.978.978 0 0 0-.613-1.237zM40.394 20.515a.97.97 0 0 0-1.476 1.052.974.974 0 0 0 .456.605 9.813 9.813 0 0 1 3.256 3.255 9.847 9.847 0 0 1 1.418 4.386.978.978 0 0 0 .966.897h.08a.968.968 0 0 0 .878-1.047c-.14-1.859-.719-3.658-1.689-5.249a11.745 11.745 0 0 0-3.89-3.899zM22.21 46.46l.136-.022a1.785 1.785 0 0 1 .793 1.466v2.82c0 .989.392 1.936 1.088 2.635.696.7 1.64 1.093 2.626 1.095h3.985a.97.97 0 0 0 .972-.974V16.769a3.22 3.22 0 0 0-1.284-2.585 3.247 3.247 0 0 0-2.856-.536 18.99 18.99 0 0 0-1.499.5 6.176 6.176 0 0 0-2.342-.465 6.249 6.249 0 0 0-4.368 1.792 6.286 6.286 0 0 0-1.879 4.342 6.248 6.248 0 0 0-2.594 1.297 6.273 6.273 0 0 0-2.232 5.196c.06.98.348 1.934.843 2.782a6.269 6.269 0 0 0 1.793 9.968 6.29 6.29 0 0 0 1.32 5.165 6.254 6.254 0 0 0 4.808 2.277c.23-.002.46-.015.69-.041zm-4.966-5.769a4.309 4.309 0 0 1 .02-1.064c.278.041.56.064.841.066a6.284 6.284 0 0 0 2.364-.465.973.973 0 0 0 .514-1.26.973.973 0 0 0-1.243-.545 4.301 4.301 0 0 1-5.136-1.478 4.335 4.335 0 0 1 .238-5.354c.108.095.22.192.328.28a6.187 6.187 0 0 0 4.614 1.263c.37-.05.733-.134 1.088-.252a6.243 6.243 0 0 0 2.856 3.341.967.967 0 0 0 1.316-.387.975.975 0 0 0-.387-1.32 4.332 4.332 0 0 1-2.069-2.58 4.346 4.346 0 0 1 .349-3.291.976.976 0 0 0-.398-1.304.969.969 0 0 0-1.307.371 6.254 6.254 0 0 0-.75 3.249 4.402 4.402 0 0 1-.95.242 4.3 4.3 0 0 1-3.193-.867 4.323 4.323 0 0 1-1.642-2.88 4.34 4.34 0 0 1 .692-2.938 4.318 4.318 0 0 1 2.437-1.77 6.285 6.285 0 0 0 1.868 2.915.968.968 0 0 0 1.608-.793.974.974 0 0 0-.327-.668 4.328 4.328 0 0 1-1.189-4.781 4.324 4.324 0 0 1 1.587-2.032c.723-.5 1.58-.766 2.458-.764a4.25 4.25 0 0 1 1.94.46.971.971 0 0 0 1.057-.119c.44-.17.906-.323 1.367-.456a1.313 1.313 0 0 1 1.163.22 1.277 1.277 0 0 1 .514 1.032v3.696a6.315 6.315 0 0 0-1.457-.939 6.182 6.182 0 0 0-4.784-.187.969.969 0 0 0-.633.874.975.975 0 0 0 .932 1.01.967.967 0 0 0 .374-.06 4.301 4.301 0 0 1 3.298.13 4.32 4.32 0 0 1 2.241 2.431.376.376 0 0 0 .029.051v28.735h-3.02c-.47 0-.92-.188-1.252-.521a1.78 1.78 0 0 1-.518-1.257v-2.82a3.686 3.686 0 0 0-.66-2.11 6.215 6.215 0 0 0 2.274-2.004 6.24 6.24 0 0 0 1.06-2.844.978.978 0 0 0-.494-.961.97.97 0 0 0-1.433.74 4.333 4.333 0 0 1-1.429 2.718 4.308 4.308 0 0 1-5.728-.016 4.332 4.332 0 0 1-1.413-2.726l-.015-.011zM7.718 29.992H.968a.97.97 0 0 0-.925.973.976.976 0 0 0 .925.973h6.75a.97.97 0 0 0 .925-.973.976.976 0 0 0-.925-.973zM20.838 9.604l-3.621-5.712a.972.972 0 0 0-1.64 1.044l3.624 5.713a.974.974 0 0 0 1 .478.97.97 0 0 0 .796-.773.977.977 0 0 0-.16-.75zM11.42 18.508l-5.975-3.145a.969.969 0 0 0-1.45.765.977.977 0 0 0 .547.958l5.976 3.145a.968.968 0 0 0 1.417-.774.974.974 0 0 0-.516-.95zM43.607 9.604l3.621-5.712a.971.971 0 0 1 1.64 1.044l-3.624 5.713a.973.973 0 0 1-1.364.338.973.973 0 0 1-.273-1.383zM53.028 18.508l5.975-3.145a.97.97 0 0 1 1.404 1.151.975.975 0 0 1-.501.572l-5.977 3.145a.966.966 0 0 1-1.31-.41.976.976 0 0 1 .41-1.313zM63.027 29.992h-6.75a.97.97 0 0 0-.925.973.975.975 0 0 0 .925.973h6.75a.97.97 0 0 0 .925-.973.975.975 0 0 0-.925-.973zM32.97 7.733V.974A.976.976 0 0 0 31.999 0a.97.97 0 0 0-.972.974v6.76a.976.976 0 0 0 .971.973.97.97 0 0 0 .972-.974z"/></g><defs><clipPath id="a"><path fill="#fff" d="M0 0h64v71H0z"/></clipPath></defs></svg>