<svg width="22" height="18" viewBox="0 0 22 18" fill="none" xmlns="http://www.w3.org/2000/svg">
<path d="M20.9531 0.0625H1.04688C0.935156 0.0625 0.84375 0.153906 0.84375 0.265625V1.89062C0.84375 2.00234 0.935156 2.09375 1.04688 2.09375H20.9531C21.0648 2.09375 21.1562 2.00234 21.1562 1.89062V0.265625C21.1562 0.153906 21.0648 0.0625 20.9531 0.0625ZM20.9531 15.9062H1.04688C0.935156 15.9062 0.84375 15.9977 0.84375 16.1094V17.7344C0.84375 17.8461 0.935156 17.9375 1.04688 17.9375H20.9531C21.0648 17.9375 21.1562 17.8461 21.1562 17.7344V16.1094C21.1562 15.9977 21.0648 15.9062 20.9531 15.9062ZM20.9531 7.98438H1.04688C0.935156 7.98438 0.84375 8.07578 0.84375 8.1875V9.8125C0.84375 9.92422 0.935156 10.0156 1.04688 10.0156H20.9531C21.0648 10.0156 21.1562 9.92422 21.1562 9.8125V8.1875C21.1562 8.07578 21.0648 7.98438 20.9531 7.98438Z" fill="white"/>
</svg>
