<svg width="22" height="40" viewBox="0 0 22 40" fill="none" xmlns="http://www.w3.org/2000/svg">
<path d="M2.01562 2.00108C2.01562 1.97935 2.02187 1.95825 2.03339 1.94019L2.04953 1.92361C2.05285 1.9202 2.05682 1.9175 2.0612 1.91565C2.06559 1.91379 2.0703 1.91284 2.07505 1.91284C2.07981 1.91284 2.08452 1.9138 2.08891 1.91565C2.09329 1.9175 2.09726 1.9202 2.10058 1.92361L2.10109 1.92414L19.5903 19.869L19.5904 19.8691C19.6245 19.9041 19.6436 19.9511 19.6436 20C19.6436 20.0489 19.6245 20.0958 19.5904 20.1308L19.5903 20.1309L2.10109 38.0758L2.10058 38.0763C2.09726 38.0797 2.09328 38.0824 2.08892 38.0843C2.08454 38.0861 2.07983 38.0871 2.07505 38.0871C2.07028 38.0871 2.06557 38.0861 2.06121 38.0843C2.05682 38.0824 2.05285 38.0797 2.04952 38.0763L2.04786 38.0746C2.02719 38.0534 2.01562 38.025 2.01562 37.9955C2.01562 37.9659 2.02719 37.9375 2.04786 37.9163L2.04881 37.9154L18.4952 21.0471L19.516 20.0001L18.4953 18.9529L2.04892 2.0813L2.04786 2.08022C2.02719 2.05906 2.01562 2.03065 2.01562 2.00108Z" stroke="#F4698F" stroke-width="3"/>
</svg>
