<svg width="11" height="11" viewBox="0 0 11 11" fill="none" xmlns="http://www.w3.org/2000/svg">
<path fill-rule="evenodd" clip-rule="evenodd" d="M8.02029 6.59176C7.88305 6.52347 7.2102 6.19438 7.08493 6.14855C6.95966 6.10318 6.86848 6.08072 6.77683 6.2173C6.68564 6.35297 6.4236 6.66005 6.34392 6.7508C6.26379 6.84201 6.18412 6.85301 6.04734 6.78517C5.91056 6.71642 5.46936 6.57297 4.94665 6.10913C4.53999 5.74797 4.26505 5.30201 4.18538 5.16543C4.10571 5.0293 4.17663 4.95551 4.24525 4.88768C4.30696 4.82672 4.38203 4.72864 4.45065 4.64934C4.51927 4.56959 4.54184 4.51276 4.58743 4.42155C4.63348 4.3308 4.61046 4.25151 4.57592 4.18322C4.54184 4.11493 4.26828 3.44439 4.15406 3.17168C4.04307 2.90631 3.93024 2.94251 3.84642 2.93793C3.76629 2.93426 3.6751 2.93335 3.58391 2.93335C3.49273 2.93335 3.34443 2.96726 3.21917 3.10385C3.09344 3.23997 2.74021 3.56951 2.74021 4.24005C2.74021 4.91014 3.23022 5.55776 3.29884 5.64897C3.36746 5.73972 4.26367 7.11563 5.63654 7.70551C5.96352 7.84576 6.2182 7.92963 6.41669 7.99196C6.74459 8.09601 7.04302 8.08134 7.27882 8.04605C7.54133 8.00709 8.08845 7.71651 8.20266 7.39842C8.31641 7.08034 8.31641 6.80763 8.28233 6.7508C8.24825 6.69397 8.15707 6.66005 8.01983 6.59176H8.02029ZM5.52324 9.98479H5.5214C4.70599 9.98494 3.90554 9.76679 3.20397 9.35321L3.03818 9.25513L1.31484 9.70521L1.77492 8.03321L1.66669 7.8618C1.21082 7.13962 0.96957 6.30382 0.970816 5.45097C0.971737 2.95306 3.01377 0.920809 5.52509 0.920809C6.74091 0.920809 7.88397 1.39289 8.74333 2.24906C9.1672 2.66916 9.50316 3.16873 9.73178 3.71888C9.96039 4.26903 10.0771 4.85884 10.0752 5.45418C10.0743 7.95209 8.03226 9.98479 5.52324 9.98479ZM9.3973 1.59868C8.88987 1.09036 8.28612 0.687305 7.62104 0.412885C6.95596 0.138464 6.24276 -0.00186828 5.52278 1.87813e-05C2.50441 1.87813e-05 0.046975 2.44522 0.0460539 5.45051C0.0446552 6.40694 0.29676 7.34681 0.776929 8.1753L0 11L2.90324 10.2419C3.70636 10.6774 4.60635 10.9056 5.52094 10.9056H5.52324C8.54162 10.9056 10.9991 8.46038 11 5.45463C11.0022 4.73839 10.8617 4.02881 10.5866 3.36695C10.3115 2.70508 9.90728 2.10407 9.3973 1.59868Z" fill="white"/>
</svg>
